<svg xmlns="http://www.w3.org/2000/svg" width="24" height="24" viewBox="0 0 24 24">
    <g fill="none" fill-rule="evenodd">
        <g fill="#999">
            <g>
                <path d="M8.222 13.333C4.452 13.333.444 12.164.444 10c0-.307.25-.556.556-.556.307 0 .556.25.556.556 0 .928 2.535 2.222 6.666 2.222S14.89 10.928 14.89 10c0-.307.249-.556.555-.556.307 0 .556.25.556.556 0 2.164-4.007 3.333-7.778 3.333z" transform="translate(4 5)"/>
                <path d="M8.222 10C4.452 10 .444 8.831.444 6.667c0-.307.25-.556.556-.556.307 0 .556.249.556.556 0 .927 2.535 2.222 6.666 2.222s6.667-1.295 6.667-2.222c0-.307.249-.556.555-.556.307 0 .556.249.556.556C16 8.83 11.993 10 8.222 10z" transform="translate(4 5)"/>
                <path fill-rule="nonzero" d="M8.222 6.667c-3.77 0-7.778-1.17-7.778-3.334S4.451 0 8.222 0 16 1.169 16 3.333c0 2.165-4.007 3.334-7.778 3.334zm0-5.556c-4.13 0-6.666 1.295-6.666 2.222 0 .928 2.535 2.223 6.666 2.223S14.89 4.26 14.89 3.333c0-.927-2.536-2.222-6.667-2.222z" transform="translate(4 5)"/>
                <path d="M15.444 10.556c-.306 0-.555-.25-.555-.556V3.333c0-.306.249-.555.555-.555.307 0 .556.249.556.555V10c0 .307-.249.556-.556.556zM1 10.556c-.307 0-.556-.25-.556-.556V3.333c0-.306.25-.555.556-.555.307 0 .556.249.556.555V10c0 .307-.25.556-.556.556z" transform="translate(4 5)"/>
            </g>
        </g>
    </g>
</svg>
