<svg xmlns="http://www.w3.org/2000/svg" width="24" height="24" viewBox="0 0 24 24">
    <g fill="none" fill-rule="evenodd">
        <g fill="#999">
            <g>
                <path d="M12.31 11.65c-1.069 0-1.938.87-1.938 1.939 0 .843.54 1.562 1.294 1.828v.105c0 .72-.585 1.306-1.305 1.306H7.777V10.35h2.584c1.43 0 2.594-1.164 2.594-2.594V7.65c.753-.267 1.295-.985 1.295-1.829 0-1.069-.87-1.939-1.94-1.939-1.069 0-1.938.87-1.938 1.94 0 .842.54 1.561 1.294 1.828v.105c0 .72-.585 1.305-1.305 1.305H7.777V3.767c.754-.266 1.295-.985 1.295-1.828C9.072.869 8.202 0 7.132 0 6.065 0 5.195.87 5.195 1.939c0 .843.541 1.562 1.294 1.828v2.705H3.905c-.72 0-1.305-.585-1.305-1.305v-.105c.753-.267 1.294-.985 1.294-1.829 0-1.069-.87-1.939-1.939-1.939-1.07 0-1.939.87-1.939 1.94 0 .843.541 1.561 1.295 1.828v.105c0 1.43 1.163 2.594 2.594 2.594h2.583v6.478H3.905c-.72 0-1.305-.586-1.305-1.305v-.106c.753-.266 1.294-.985 1.294-1.828 0-1.07-.87-1.939-1.939-1.939-1.07 0-1.939.87-1.939 1.939 0 .843.541 1.562 1.295 1.828v.106c0 1.43 1.163 2.594 2.594 2.594h2.583v5.183H4.544c-.356 0-.645.289-.645.644 0 .356.289.645.645.645h5.178c.356 0 .644-.289.644-.645 0-.355-.288-.644-.644-.644H7.777v-2.594h2.584c1.43 0 2.594-1.164 2.594-2.595v-.105c.753-.266 1.295-.985 1.295-1.828 0-1.07-.87-1.94-1.94-1.94zm-.65-5.828c0-.358.292-.65.65-.65.359 0 .65.292.65.65 0 .359-.291.65-.65.65-.358 0-.65-.291-.65-.65zM1.956 3.883c-.358 0-.65-.291-.65-.65 0-.358.292-.65.65-.65.358 0 .65.292.65.65 0 .359-.292.65-.65.65zm0 7.767c-.358 0-.65-.292-.65-.65 0-.358.292-.65.65-.65.358 0 .65.292.65.65 0 .358-.292.65-.65.65zm5.178-9.061c-.359 0-.65-.292-.65-.65 0-.358.291-.65.65-.65.358 0 .65.292.65.65 0 .358-.292.65-.65.65zm5.178 11.65c-.359 0-.65-.292-.65-.65 0-.358.291-.65.65-.65.358 0 .65.292.65.65 0 .358-.292.65-.65.65z" transform="translate(5 1)"/>
            </g>
        </g>
    </g>
</svg>
