<svg xmlns="http://www.w3.org/2000/svg" width="24" height="24" viewBox="0 0 24 24">
    <g fill="none" fill-rule="evenodd">
        <g>
            <path d="M0 0H24V24H0z"/>
            <path stroke="#999" d="M4.01 10.385C4.002 10.257 4 10.129 4 10c0-4.418 3.582-8 8-8s8 3.582 8 8c0 .126-.003.252-.009.376.006.062.009.124.009.188.025 3.411-2.641 7.178-8 11.302-5.333-4.62-8-8.387-8-11.302 0-.06.003-.12.01-.18zM12 15c2.761 0 5-2.239 5-5s-2.239-5-5-5-5 2.239-5 5 2.239 5 5 5z"/>
        </g>
    </g>
</svg>
